# Blender 3.6.1
# www.blender.org
mtllib window.mtl
o Cube.111
v 0.006084 -0.004900 -0.500000
v 0.006084 -0.004900 0.000000
v 0.006084 0.985100 -0.500000
v 0.006084 0.985100 0.000000
v 0.006084 0.886100 -0.500000
v 0.006084 0.886100 0.000000
v 0.006084 0.084200 -0.500000
v 0.006084 0.084200 0.000000
v -0.036764 0.886100 -0.500000
v -0.036764 0.886100 0.000000
v -0.036764 0.084200 -0.500000
v -0.036764 0.084200 0.000000
v 0.065524 0.084200 -0.500000
v 0.065524 -0.004900 -0.500000
v 0.065524 0.084200 0.000000
v 0.065524 -0.004900 0.000000
v 0.065524 0.985100 -0.500000
v 0.065524 0.985100 0.000000
v 0.065524 0.886100 -0.500000
v 0.065524 0.886100 0.000000
v 0.006084 0.485150 -0.500000
v 0.006084 0.485150 0.000000
v -0.036764 0.485150 -0.500000
v -0.036764 0.485150 0.000000
v -0.946725 0.485150 -0.500000
v -0.946725 0.084200 -0.500000
v -0.946725 0.485150 0.000000
v -0.946725 0.084200 0.000000
vn -0.0000 -1.0000 -0.0000
vn -0.0000 -0.0000 1.0000
vn -0.0000 -0.0000 -1.0000
vn 1.0000 -0.0000 -0.0000
vn -0.0000 1.0000 -0.0000
vt 0.511375 0.637500
vt 0.511375 0.625000
vt 0.411138 0.637500
vt 0.400000 0.637500
vt 0.461256 0.637500
vt 0.461256 0.625000
vt 0.400000 0.625000
vt 0.411137 0.625000
vt 0.523750 0.625000
vt 0.523750 0.637500
s 0
f 6/1/1 5/2/1 19/2/1 20/1/1
f 8/3/2 2/4/2 16/4/2 15/3/2
f 22/5/3 8/3/3 12/3/3 24/5/3
f 21/6/2 5/2/2 9/2/2 23/6/2
f 1/7/3 7/8/3 13/8/3 14/7/3
f 23/6/4 9/2/4 10/1/4 24/5/4
f 8/3/5 7/8/5 11/8/5 12/3/5
f 19/2/4 17/9/4 18/10/4 20/1/4
f 14/7/4 13/8/4 15/3/4 16/4/4
f 2/4/1 1/7/1 14/7/1 16/4/1
f 3/9/5 4/10/5 18/10/5 17/9/5
f 5/2/3 3/9/3 17/9/3 19/2/3
f 4/10/2 6/1/2 20/1/2 18/10/2
f 7/8/5 8/3/5 15/3/5 13/8/5
f 23/6/1 24/5/1 27/5/1 25/6/1
f 7/8/2 21/6/2 23/6/2 11/8/2
f 6/1/3 22/5/3 24/5/3 10/1/3
f 26/8/4 25/6/4 27/5/4 28/3/4
f 11/8/2 23/6/2 25/6/2 26/8/2
f 12/3/5 11/8/5 26/8/5 28/3/5
f 24/5/3 12/3/3 28/3/3 27/5/3
