# Blender 3.6.1
# www.blender.org
mtllib nighthawks_outer_building.mtl
o Cube.010
v 7.000000 0.000000 0.000000
v 7.000000 8.000000 0.000000
v 7.000000 0.000000 -8.000000
v 7.000000 8.000000 -8.000000
v 10.000000 0.000000 0.000000
v 10.000000 8.000000 0.000000
v 10.000000 0.000000 -8.000000
v 10.000000 8.000000 -8.000000
v 7.000000 0.000000 -5.000000
v 7.000000 8.000000 -5.000000
v 10.000000 0.000000 -5.000000
v 10.000000 8.000000 -5.000000
v 0.000000 8.000000 -5.000000
v 0.000000 8.000000 -8.000000
v 0.000000 0.000000 -8.000000
v 0.000000 0.000000 -5.000000
vn -0.0000 -0.0000 -1.0000
vn 1.0000 -0.0000 -0.0000
vn -0.0000 -0.0000 1.0000
vn -0.0000 -1.0000 -0.0000
vn -0.0000 1.0000 -0.0000
vn -1.0000 -0.0000 -0.0000
vt 0.625000 0.250000
vt 0.375000 0.250000
vt 0.625000 0.500000
vt 0.375000 0.500000
vt 0.375000 0.625000
vt 0.625000 0.625000
vt 0.625000 0.750000
vt 0.375000 0.750000
vt 0.625000 1.000000
vt 0.375000 1.000000
vt 0.125000 0.625000
vt 0.125000 0.750000
vt 0.875000 0.625000
vt 0.875000 0.750000
vt 0.875000 0.500000
vt 0.125000 0.500000
vt 0.375000 0.000000
vt 0.625000 0.000000
vt 0.625000 0.125000
vt 0.375000 0.125000
s 0
f 4/1/1 3/2/1 15/2/1 14/1/1
f 3/2/1 4/1/1 8/3/1 7/4/1
f 11/5/2 12/6/2 6/7/2 5/8/2
f 5/8/3 6/7/3 2/9/3 1/10/3
f 9/11/4 11/5/4 5/8/4 1/12/4
f 12/6/5 10/13/5 2/14/5 6/7/5
f 8/3/5 4/15/5 10/13/5 12/6/5
f 3/16/4 7/4/4 11/5/4 9/11/4
f 7/4/2 8/3/2 12/6/2 11/5/2
f 1/17/6 2/18/6 10/19/6 9/20/6
f 16/20/6 13/19/6 14/1/6 15/2/6
f 3/16/4 9/11/4 16/11/4 15/16/4
f 9/20/3 10/19/3 13/19/3 16/20/3
f 10/13/5 4/15/5 14/15/5 13/13/5
