# Blender 3.6.1
# www.blender.org
mtllib nighthawks_door_handle.mtl
o Cube.011
v 0.868873 1.400000 -4.584471
v 0.761963 1.400000 -4.429834
v 1.327940 1.400000 -4.038543
v 1.434849 1.400000 -4.193180
v 1.327940 -0.000000 -4.038543
v 1.434849 -0.000000 -4.193180
v 0.868873 -0.000000 -4.584471
v 0.761963 -0.000000 -4.429834
v 0.761963 0.600000 -4.429834
v 1.327940 0.600000 -4.038543
v 0.868873 0.600000 -4.584471
v 1.434849 0.600000 -4.193180
v 1.327940 0.732857 -4.038543
v 0.761963 0.732857 -4.429834
v 0.868873 0.732857 -4.584471
v 1.434849 0.732857 -4.193180
v 1.208459 1.400000 -4.349696
v 1.101550 1.400000 -4.195060
v 1.208459 -0.000000 -4.349696
v 1.101550 -0.000000 -4.195060
v 1.208459 0.922742 -4.349696
v 1.101550 0.922742 -4.195060
v 1.101550 1.055599 -4.195060
v 1.208459 1.055599 -4.349696
v 0.999674 1.400000 -4.265492
v 0.999674 -0.000000 -4.265492
v 1.106583 0.922742 -4.420129
v 1.106583 1.055599 -4.420129
v 1.106583 1.400000 -4.420129
v 1.106583 -0.000000 -4.420129
v 0.999674 0.922742 -4.265492
v 0.999674 1.055599 -4.265492
vn -0.0000 1.0000 -0.0000
vn -0.0000 -1.0000 -0.0000
vn -0.5687 -0.0000 0.8226
vn -0.8226 -0.0000 -0.5687
vn 0.5687 -0.0000 -0.8226
vn 0.8226 -0.0000 0.5687
vt 0.550000 0.217075
vt 0.550000 0.532925
vt 0.550000 0.523408
vt 0.550000 0.226592
vt 0.550000 0.217075
vt 0.550000 0.226592
vt 0.550000 0.537004
vt 0.550000 0.546067
vt 0.550000 0.546067
vt 0.550000 0.537004
vt 0.550000 0.203933
vt 0.550000 0.203933
vt 0.550000 0.226592
vt 0.550000 0.217075
vt 0.550000 0.532925
vt 0.550000 0.212996
vt 0.550000 0.212996
s 0
f 25/1/1 29/2/1 1/3/1 2/4/1
f 26/5/2 8/4/2 7/3/2 30/2/2
f 31/5/3 9/6/3 8/4/3 26/5/3
f 9/6/4 11/3/4 7/3/4 8/4/4
f 21/7/5 12/8/5 6/9/5 19/10/5
f 12/8/6 10/11/6 5/11/6 6/9/6
f 16/8/6 13/12/6 10/11/6 12/8/6
f 24/7/5 16/8/5 12/8/5 21/7/5
f 14/13/4 15/3/4 11/3/4 9/6/4
f 32/14/3 14/13/3 9/6/3 31/5/3
f 25/1/3 2/4/3 14/13/3 32/14/3
f 2/4/4 1/3/4 15/3/4 14/13/4
f 17/10/5 4/9/5 16/8/5 24/7/5
f 4/9/6 3/11/6 13/12/6 16/8/6
f 29/2/5 17/10/5 24/7/5 28/15/5
f 13/12/3 3/11/3 18/16/3 23/17/3
f 13/12/3 23/17/3 22/17/3 10/11/3
f 31/5/1 22/17/1 21/7/1 27/15/1
f 27/15/5 21/7/5 19/10/5 30/2/5
f 10/11/3 22/17/3 20/17/3 5/11/3
f 5/11/2 20/17/2 19/10/2 6/9/2
f 3/11/1 4/9/1 17/10/1 18/16/1
f 11/3/5 27/15/5 30/2/5 7/3/5
f 15/3/5 28/15/5 27/15/5 11/3/5
f 1/3/5 29/2/5 28/15/5 15/3/5
f 18/16/3 25/1/3 32/14/3 23/17/3
f 27/15/4 31/5/4 32/14/4 28/15/4
f 22/17/3 31/5/3 26/5/3 20/17/3
f 20/17/2 26/5/2 30/2/2 19/10/2
f 18/16/1 17/10/1 29/2/1 25/1/1
f 22/17/4 23/17/4 24/7/4 21/7/4
f 32/14/2 28/15/2 24/7/2 23/17/2
