# Blender 3.6.1
# www.blender.org
mtllib nighthawks_door_handlee.mtl
o Cube.012
v 1.303411 0.819889 -4.055502
v 1.303411 0.494950 -4.055502
v 1.215806 0.819889 -4.116068
v 1.215806 0.494950 -4.116068
v 1.301039 0.494950 -4.052072
v 1.301039 0.819889 -4.052072
v 1.213434 0.494950 -4.112638
v 1.213434 0.819889 -4.112638
vn 0.5687 -0.0000 -0.8226
vn -0.5687 -0.0000 0.8226
vn -0.0000 1.0000 -0.0000
vn 0.8226 -0.0000 0.5687
vn -0.8226 -0.0000 -0.5687
vn -0.0000 -1.0000 -0.0000
vt 0.550000 0.203933
vt 0.550000 0.203933
vt 0.550000 0.212996
vt 0.550000 0.212996
s 0
f 1/1/1 2/2/1 4/3/1 3/4/1
f 6/1/2 8/4/2 7/3/2 5/2/2
f 1/1/3 3/4/3 8/4/3 6/1/3
f 2/2/4 1/1/4 6/1/4 5/2/4
f 3/4/5 4/3/5 7/3/5 8/4/5
f 4/3/6 2/2/6 5/2/6 7/3/6
